<svg width="541" height="733" viewBox="0 0 541 733" fill="none" xmlns="http://www.w3.org/2000/svg">
<g clip-path="url(#clip0_443_636)">
<path d="M476.125 6.08337H64.875C32.4283 6.08337 6.125 38.3562 6.125 78.1667V654.833C6.125 694.644 32.4283 726.917 64.875 726.917H476.125C508.572 726.917 534.875 694.644 534.875 654.833V78.1667C534.875 38.3562 508.572 6.08337 476.125 6.08337Z" fill="#CBE4FF" stroke="#2D3648" stroke-width="14" stroke-linecap="round" stroke-linejoin="round"/>
<path d="M11 107H99.125" stroke="#2D3648" stroke-width="16.6667" stroke-linecap="round" stroke-linejoin="round"/>
<path d="M451 107H451.294" stroke="#2D3648" stroke-width="50" stroke-linecap="round" stroke-linejoin="round"/>
<path d="M271.208 589.417C370.735 589.417 451.417 508.735 451.417 409.208C451.417 309.682 370.735 229 271.208 229C171.682 229 91 309.682 91 409.208C91 508.735 171.682 589.417 271.208 589.417Z" stroke="#2D3648" stroke-width="30" stroke-linecap="round" stroke-linejoin="round"/>
<path d="M124.5 589C143.002 589 158 508.411 158 409C158 309.589 143.002 229 124.5 229C105.998 229 91 309.589 91 409C91 508.411 105.998 589 124.5 589Z" fill="#88C1FF" stroke="#2D3648" stroke-width="30" stroke-linecap="round" stroke-linejoin="round"/>
</g>
<defs>
<clipPath id="clip0_443_636">
<rect width="541" height="733" fill="white"/>
</clipPath>
</defs>
</svg>
